<mxfile host="app.diagrams.net" modified="2022-04-15T07:30:29.303Z" agent="5.0 (Windows NT 10.0; Win64; x64) AppleWebKit/537.36 (KHTML, like Gecko) Chrome/100.0.4896.75 Safari/537.36" etag="YdgUbvshW4jdRO_uaX36" version="17.4.4" type="github">
  <diagram id="YokHMV-pXo1lt2CPLB1L" name="Page-1">
    <mxGraphModel dx="1108" dy="450" grid="1" gridSize="10" guides="1" tooltips="1" connect="1" arrows="1" fold="1" page="1" pageScale="1" pageWidth="850" pageHeight="1100" math="0" shadow="0">
      <root>
        <mxCell id="0" />
        <mxCell id="1" parent="0" />
        <mxCell id="ws3U10MYjGHLncX9R9nI-1" value="" style="edgeStyle=orthogonalEdgeStyle;rounded=0;orthogonalLoop=1;jettySize=auto;html=1;fillColor=#00CC66;" edge="1" parent="1" source="ws3U10MYjGHLncX9R9nI-2">
          <mxGeometry relative="1" as="geometry">
            <mxPoint x="139.99999999999977" y="650.01" as="targetPoint" />
          </mxGeometry>
        </mxCell>
        <mxCell id="ws3U10MYjGHLncX9R9nI-2" value="The resident" style="shape=umlActor;verticalLabelPosition=bottom;labelBackgroundColor=#ffffff;verticalAlign=top;html=1;outlineConnect=0;fillColor=#FFE599;" vertex="1" parent="1">
          <mxGeometry x="70" y="620.01" width="30" height="60" as="geometry" />
        </mxCell>
        <mxCell id="ws3U10MYjGHLncX9R9nI-3" value="" style="edgeStyle=orthogonalEdgeStyle;rounded=0;orthogonalLoop=1;jettySize=auto;html=1;fillColor=#00CC66;entryX=0;entryY=0.5;entryDx=0;entryDy=0;" edge="1" parent="1" source="ws3U10MYjGHLncX9R9nI-4" target="ws3U10MYjGHLncX9R9nI-16">
          <mxGeometry relative="1" as="geometry">
            <mxPoint x="550" y="670" as="targetPoint" />
          </mxGeometry>
        </mxCell>
        <mxCell id="ws3U10MYjGHLncX9R9nI-4" value="&lt;div style=&quot;font-size: 14px&quot;&gt;&lt;div&gt;1. Enters UIN/VID&lt;/div&gt;&lt;div&gt;2. Enters captcha&lt;/div&gt;3. Enters OTP&lt;font&gt;&lt;br&gt;&lt;/font&gt;&lt;/div&gt;" style="rounded=1;whiteSpace=wrap;html=1;fillColor=#FFD966;" vertex="1" parent="1">
          <mxGeometry x="290" y="605.01" width="160" height="89.99" as="geometry" />
        </mxCell>
        <mxCell id="ws3U10MYjGHLncX9R9nI-5" value="" style="edgeStyle=orthogonalEdgeStyle;rounded=0;orthogonalLoop=1;jettySize=auto;html=1;" edge="1" parent="1" source="ws3U10MYjGHLncX9R9nI-6" target="ws3U10MYjGHLncX9R9nI-8">
          <mxGeometry relative="1" as="geometry" />
        </mxCell>
        <mxCell id="ws3U10MYjGHLncX9R9nI-6" value="&lt;div&gt;&lt;font style=&quot;font-size: 14px&quot;&gt;Navigates to &quot;&lt;b&gt;Order a card&lt;/b&gt;&quot;&lt;/font&gt;&lt;br&gt;&lt;/div&gt;" style="rounded=1;whiteSpace=wrap;html=1;fillColor=#FFD966;arcSize=10;" vertex="1" parent="1">
          <mxGeometry x="590" y="400.93" width="120" height="60" as="geometry" />
        </mxCell>
        <mxCell id="ws3U10MYjGHLncX9R9nI-7" value="" style="edgeStyle=orthogonalEdgeStyle;rounded=0;orthogonalLoop=1;jettySize=auto;html=1;" edge="1" parent="1" source="ws3U10MYjGHLncX9R9nI-8">
          <mxGeometry relative="1" as="geometry">
            <mxPoint x="980" y="430.8299999999999" as="targetPoint" />
          </mxGeometry>
        </mxCell>
        <mxCell id="ws3U10MYjGHLncX9R9nI-8" value="&lt;font style=&quot;font-size: 14px&quot;&gt;Chooses the print partner from the drop down list&lt;/font&gt;" style="rounded=1;whiteSpace=wrap;html=1;fillColor=#FFD966;" vertex="1" parent="1">
          <mxGeometry x="750" y="370" width="190" height="121.87" as="geometry" />
        </mxCell>
        <mxCell id="ws3U10MYjGHLncX9R9nI-9" value="&lt;font style=&quot;font-size: 14px&quot;&gt;Out of scope for us:&lt;br&gt;Resident is taken to the print provider&#39;s end where he can choose the type of card, address of card delivery and, pay the relevant amount.&lt;/font&gt;" style="rounded=1;whiteSpace=wrap;html=1;fillColor=#FFD966;" vertex="1" parent="1">
          <mxGeometry x="980" y="370" width="200" height="133.13" as="geometry" />
        </mxCell>
        <mxCell id="ws3U10MYjGHLncX9R9nI-10" value="After successful validation, &lt;br&gt;a session is created" style="text;html=1;strokeColor=none;fillColor=none;align=center;verticalAlign=middle;whiteSpace=wrap;rounded=0;" vertex="1" parent="1">
          <mxGeometry x="460" y="592.5" width="70" height="20" as="geometry" />
        </mxCell>
        <mxCell id="ws3U10MYjGHLncX9R9nI-11" value="" style="edgeStyle=orthogonalEdgeStyle;rounded=0;orthogonalLoop=1;jettySize=auto;html=1;" edge="1" parent="1">
          <mxGeometry relative="1" as="geometry">
            <mxPoint x="1180" y="430.6100000000001" as="sourcePoint" />
            <mxPoint x="1230" y="430.6100000000001" as="targetPoint" />
          </mxGeometry>
        </mxCell>
        <mxCell id="ws3U10MYjGHLncX9R9nI-12" value="" style="edgeStyle=orthogonalEdgeStyle;rounded=0;orthogonalLoop=1;jettySize=auto;html=1;" edge="1" parent="1" source="ws3U10MYjGHLncX9R9nI-13" target="ws3U10MYjGHLncX9R9nI-14">
          <mxGeometry relative="1" as="geometry" />
        </mxCell>
        <mxCell id="ws3U10MYjGHLncX9R9nI-13" value="&lt;font style=&quot;font-size: 14px&quot;&gt;Gets a confirmation message as &quot;order placed successfully&quot; + Application ID&lt;/font&gt;" style="rounded=1;whiteSpace=wrap;html=1;fillColor=#FFD966;" vertex="1" parent="1">
          <mxGeometry x="1230" y="376.86" width="130" height="107.5" as="geometry" />
        </mxCell>
        <mxCell id="ws3U10MYjGHLncX9R9nI-14" value="&lt;font style=&quot;font-size: 14px&quot;&gt;Gets notification over registered email Id and mobile number&lt;/font&gt;" style="rounded=1;whiteSpace=wrap;html=1;fillColor=#FFD966;" vertex="1" parent="1">
          <mxGeometry x="1400" y="384.67" width="160" height="91.87" as="geometry" />
        </mxCell>
        <mxCell id="ws3U10MYjGHLncX9R9nI-15" value="" style="edgeStyle=orthogonalEdgeStyle;rounded=0;orthogonalLoop=1;jettySize=auto;html=1;" edge="1" parent="1" source="ws3U10MYjGHLncX9R9nI-16" target="ws3U10MYjGHLncX9R9nI-18">
          <mxGeometry relative="1" as="geometry" />
        </mxCell>
        <mxCell id="ws3U10MYjGHLncX9R9nI-16" value="&lt;div&gt;&lt;font style=&quot;font-size: 14px&quot;&gt;Navigates to &quot;&lt;b&gt;Download card&quot;&lt;/b&gt;&lt;/font&gt;&lt;br&gt;&lt;/div&gt;" style="rounded=1;whiteSpace=wrap;html=1;fillColor=#CC99FF;arcSize=10;" vertex="1" parent="1">
          <mxGeometry x="590" y="620" width="120" height="60" as="geometry" />
        </mxCell>
        <mxCell id="ws3U10MYjGHLncX9R9nI-17" value="" style="edgeStyle=orthogonalEdgeStyle;rounded=0;orthogonalLoop=1;jettySize=auto;html=1;" edge="1" parent="1" source="ws3U10MYjGHLncX9R9nI-18" target="ws3U10MYjGHLncX9R9nI-20">
          <mxGeometry relative="1" as="geometry" />
        </mxCell>
        <mxCell id="ws3U10MYjGHLncX9R9nI-18" value="&lt;font style=&quot;font-size: 14px&quot;&gt;Chooses the following:&lt;br&gt;1. Data that he wants to be included in the credential &lt;br&gt;2. Data that will be masked/unmasked from above chosen options&lt;/font&gt;" style="rounded=1;whiteSpace=wrap;html=1;fillColor=#CC99FF;" vertex="1" parent="1">
          <mxGeometry x="750" y="590" width="170" height="120" as="geometry" />
        </mxCell>
        <mxCell id="ws3U10MYjGHLncX9R9nI-19" value="" style="edgeStyle=orthogonalEdgeStyle;rounded=0;orthogonalLoop=1;jettySize=auto;html=1;entryX=0;entryY=0.5;entryDx=0;entryDy=0;" edge="1" parent="1" source="ws3U10MYjGHLncX9R9nI-20" target="ws3U10MYjGHLncX9R9nI-22">
          <mxGeometry relative="1" as="geometry">
            <mxPoint x="1140" y="630.0050000000001" as="targetPoint" />
          </mxGeometry>
        </mxCell>
        <mxCell id="ws3U10MYjGHLncX9R9nI-20" value="&lt;font style=&quot;font-size: 14px&quot;&gt;Views the card with choosen data and might choose to download, print, export etc.&lt;/font&gt;" style="rounded=1;whiteSpace=wrap;html=1;fillColor=#CC99FF;" vertex="1" parent="1">
          <mxGeometry x="950" y="605" width="170" height="90" as="geometry" />
        </mxCell>
        <mxCell id="ws3U10MYjGHLncX9R9nI-21" value="" style="edgeStyle=orthogonalEdgeStyle;rounded=0;orthogonalLoop=1;jettySize=auto;html=1;fillColor=#00CC66;" edge="1" parent="1" source="ws3U10MYjGHLncX9R9nI-22" target="ws3U10MYjGHLncX9R9nI-23">
          <mxGeometry relative="1" as="geometry" />
        </mxCell>
        <mxCell id="ws3U10MYjGHLncX9R9nI-22" value="&lt;font style=&quot;font-size: 14px&quot;&gt;Gets a success message:&lt;br&gt;1. Your credential has been downloaded&lt;br&gt;2. Your credential is now printing&lt;br&gt;3. Your credential was exported successfully&lt;/font&gt;" style="rounded=1;whiteSpace=wrap;html=1;fillColor=#CC99FF;" vertex="1" parent="1">
          <mxGeometry x="1160" y="588.13" width="200" height="123.75" as="geometry" />
        </mxCell>
        <mxCell id="ws3U10MYjGHLncX9R9nI-23" value="&lt;font style=&quot;font-size: 14px&quot;&gt;Gets a notification of the transaction over registered email Id &amp;amp; phone number&lt;/font&gt;" style="rounded=1;whiteSpace=wrap;html=1;fillColor=#CC99FF;" vertex="1" parent="1">
          <mxGeometry x="1410" y="612.5" width="150" height="75" as="geometry" />
        </mxCell>
        <mxCell id="ws3U10MYjGHLncX9R9nI-24" value="" style="edgeStyle=orthogonalEdgeStyle;rounded=0;orthogonalLoop=1;jettySize=auto;html=1;fillColor=#00CC66;" edge="1" parent="1" target="ws3U10MYjGHLncX9R9nI-4">
          <mxGeometry relative="1" as="geometry">
            <mxPoint x="260" y="650" as="sourcePoint" />
          </mxGeometry>
        </mxCell>
        <mxCell id="ws3U10MYjGHLncX9R9nI-25" value="" style="endArrow=classic;html=1;fillColor=#00CC66;" edge="1" parent="1">
          <mxGeometry width="50" height="50" relative="1" as="geometry">
            <mxPoint x="540" y="650" as="sourcePoint" />
            <mxPoint x="590" y="859.9999999999998" as="targetPoint" />
            <Array as="points">
              <mxPoint x="540" y="860" />
            </Array>
          </mxGeometry>
        </mxCell>
        <mxCell id="ws3U10MYjGHLncX9R9nI-26" value="" style="endArrow=classic;html=1;fillColor=#00CC66;entryX=0;entryY=0.5;entryDx=0;entryDy=0;" edge="1" parent="1" target="ws3U10MYjGHLncX9R9nI-6">
          <mxGeometry width="50" height="50" relative="1" as="geometry">
            <mxPoint x="540" y="650" as="sourcePoint" />
            <mxPoint x="620" y="810" as="targetPoint" />
            <Array as="points">
              <mxPoint x="540" y="520" />
              <mxPoint x="540" y="431" />
            </Array>
          </mxGeometry>
        </mxCell>
        <mxCell id="ws3U10MYjGHLncX9R9nI-27" value="" style="edgeStyle=orthogonalEdgeStyle;rounded=0;orthogonalLoop=1;jettySize=auto;html=1;fillColor=#00CC66;" edge="1" parent="1" source="ws3U10MYjGHLncX9R9nI-28" target="ws3U10MYjGHLncX9R9nI-30">
          <mxGeometry relative="1" as="geometry" />
        </mxCell>
        <mxCell id="ws3U10MYjGHLncX9R9nI-28" value="&lt;div&gt;&lt;font style=&quot;font-size: 14px&quot;&gt;Navigates to &quot;&lt;b&gt;share with a partner&lt;/b&gt;&quot;&lt;/font&gt;&lt;br&gt;&lt;/div&gt;" style="rounded=1;whiteSpace=wrap;html=1;fillColor=#FFF2CC;arcSize=10;" vertex="1" parent="1">
          <mxGeometry x="590" y="830" width="120" height="60" as="geometry" />
        </mxCell>
        <mxCell id="ws3U10MYjGHLncX9R9nI-29" value="" style="edgeStyle=orthogonalEdgeStyle;rounded=0;orthogonalLoop=1;jettySize=auto;html=1;" edge="1" parent="1" source="ws3U10MYjGHLncX9R9nI-30" target="ws3U10MYjGHLncX9R9nI-32">
          <mxGeometry relative="1" as="geometry" />
        </mxCell>
        <mxCell id="ws3U10MYjGHLncX9R9nI-30" value="&lt;font style=&quot;font-size: 14px&quot;&gt;Chooses the following:&lt;br&gt;1. Data that he wants to be included in the credential&amp;nbsp;&lt;br&gt;2. Data that will be masked/unmasked from above chosen options&lt;/font&gt;" style="rounded=1;whiteSpace=wrap;html=1;fillColor=#FFF2CC;arcSize=10;" vertex="1" parent="1">
          <mxGeometry x="790" y="790" width="220" height="140" as="geometry" />
        </mxCell>
        <mxCell id="ws3U10MYjGHLncX9R9nI-31" value="" style="edgeStyle=orthogonalEdgeStyle;rounded=0;orthogonalLoop=1;jettySize=auto;html=1;" edge="1" parent="1" source="ws3U10MYjGHLncX9R9nI-32" target="ws3U10MYjGHLncX9R9nI-34">
          <mxGeometry relative="1" as="geometry" />
        </mxCell>
        <mxCell id="ws3U10MYjGHLncX9R9nI-32" value="&lt;font style=&quot;font-size: 14px&quot;&gt;1. Chooses the auth partner from drop-down&lt;br&gt;2. Enters the purpose of sharing the data&lt;br&gt;3. Accepts consent to share data&lt;/font&gt;" style="rounded=1;whiteSpace=wrap;html=1;fillColor=#FFF2CC;arcSize=10;" vertex="1" parent="1">
          <mxGeometry x="1090" y="790" width="220" height="140" as="geometry" />
        </mxCell>
        <mxCell id="ws3U10MYjGHLncX9R9nI-33" value="" style="edgeStyle=orthogonalEdgeStyle;rounded=0;orthogonalLoop=1;jettySize=auto;html=1;" edge="1" parent="1" source="ws3U10MYjGHLncX9R9nI-34">
          <mxGeometry relative="1" as="geometry">
            <mxPoint x="1660" y="859.9999999999998" as="targetPoint" />
          </mxGeometry>
        </mxCell>
        <mxCell id="ws3U10MYjGHLncX9R9nI-34" value="&lt;font style=&quot;font-size: 14px&quot;&gt;Gets a message that the data has been successfully shared + rname of relying party + AID&lt;/font&gt;" style="rounded=1;whiteSpace=wrap;html=1;fillColor=#FFF2CC;arcSize=10;" vertex="1" parent="1">
          <mxGeometry x="1360" y="790" width="220" height="140" as="geometry" />
        </mxCell>
        <mxCell id="ws3U10MYjGHLncX9R9nI-35" value="&lt;font style=&quot;font-size: 14px&quot;&gt;Gets a notification of the transaction over registered email Id &amp;amp; phone number&lt;/font&gt;" style="rounded=1;whiteSpace=wrap;html=1;fillColor=#FFF2CC;arcSize=10;" vertex="1" parent="1">
          <mxGeometry x="1660" y="820" width="160" height="80" as="geometry" />
        </mxCell>
        <mxCell id="ws3U10MYjGHLncX9R9nI-36" value="Text" style="text;html=1;align=center;verticalAlign=middle;resizable=0;points=[];autosize=1;" vertex="1" parent="ws3U10MYjGHLncX9R9nI-35">
          <mxGeometry x="99" y="44" width="40" height="20" as="geometry" />
        </mxCell>
        <mxCell id="ws3U10MYjGHLncX9R9nI-37" value="&lt;div&gt;&lt;font style=&quot;font-size: 14px&quot;&gt;Navigates to &quot;&lt;b&gt;issue credential&lt;/b&gt;&quot;&lt;/font&gt;&lt;br&gt;&lt;/div&gt;" style="rounded=1;whiteSpace=wrap;html=1;fillColor=#CC99FF;arcSize=10;" vertex="1" parent="1">
          <mxGeometry x="140" y="620" width="120" height="60" as="geometry" />
        </mxCell>
      </root>
    </mxGraphModel>
  </diagram>
</mxfile>
